<?xml version="1.0" encoding="utf-8"?>
<svg version="1.1" id="Layer_1" xmlns="http://www.w3.org/2000/svg" xmlns:xlink="http://www.w3.org/1999/xlink" x="0px" y="0px"
	 viewBox="0 0 135.5 170.4" style="enable-background:new 0 0 135.5 170.4;" xml:space="preserve">
<style type="text/css">
	.st0{fill:#1a2744;}
	.st1{fill:none;stroke:#1a2744;stroke-width:0.9021;}
</style>
<g>
	<g>
		<path class="st0" d="M77.1,25.4c-0.2-1.4-1-3-1.5-3.7c-2.7-3.3-5.8-4.3-9.6-3.9c-3.8,0.5-6.9,4-7.9,7.4
			C63.4,28.6,71.7,28.8,77.1,25.4z"/>
		<path class="st0" d="M54.4,27.2l0.2,0.2c1.2,0.8,2.3,1.5,3.6,2.1c6.9,3.6,16.8,2.7,22.6-2.1c-0.9-0.4-1.9-0.8-2.9-0.9
			c-5.4,3.6-14.1,3.7-19.7,0.3c-0.6-0.2-0.9-0.8-1.5-0.7L54.4,27.2z"/>
		<path class="st0" d="M44.8,32.6c0.8,0.2,1.7,0.2,2.4-0.1c2.2-1.4,4.5-2.6,6.7-3.8l-1.6-0.3C49.5,29,47.1,31.1,44.8,32.6z"/>
		<path class="st0" d="M52.1,33.3c1.6-0.9,3.3-1.9,4.8-2.8c-0.6,0-1-0.5-1.6-0.4c-2.2,0.8-4.3,1.8-6.1,3.3
			C50.2,33.6,51.2,33.6,52.1,33.3z"/>
		<path class="st0" d="M53.9,34.3c2.6,0.7,4.5-1.1,6.4-2.3C57.6,31.1,55.7,33.1,53.9,34.3z"/>
		<path class="st0" d="M58.1,34.9c2.2,0.6,4-0.8,5.5-2C61.3,32.1,59.8,33.9,58.1,34.9z"/>
		<path class="st0" d="M41.9,34.4c-2.7,2.1-5.4,4.2-7.9,6.7c1,0.1,2.2-0.1,2.9-0.8c2.6-2.2,5.5-4.6,8.2-6.5
			C44,33.7,42.7,33.7,41.9,34.4z"/>
		<path class="st0" d="M61.7,35.9c0.5,0,1.2,0.1,1.7-0.1c0.6-0.2,1-0.9,0.9-1.6C63.4,34.8,62.6,35.3,61.7,35.9z"/>
		<path class="st0" d="M42.1,38.4c0.7,0.1,1.7,0.2,2.4,0c1.8-0.9,3.6-2.4,5.2-3.6C46.6,33.7,44.6,37.1,42.1,38.4z"/>
		<path class="st0" d="M48.2,38.4l0.7,0.1c2.3,0.5,3.8-1.6,5.4-2.7l-1.8-0.1C50.7,35.9,49.7,37.5,48.2,38.4z"/>
		<path class="st0" d="M57.5,36c-1.6-0.2-2.7,1.1-3.9,2c2,0.5,3.7-0.7,5.1-1.9C58.3,36.2,57.9,36,57.5,36z"/>
		<path class="st0" d="M62.4,37c-1.5-0.5-2.9,0.1-4,1.1C59.9,38.9,61.3,37.7,62.4,37z"/>
		<g>
			<path class="st0" d="M90.3,61.4c-1-0.2-2.1-0.3-2.9,0.5c-1,0.5-0.3,2.2-1.8,2c-0.2,0.1-1,0.4-1.1,1c0.7,0.1,1.5,0.3,1.9,0.9
				c0.6-0.8,1.4-1.5,2.5-1.6c1.5-0.2,2.8,0.5,3.6,1.7c0.6-0.6,1.2-0.7,1.8-1.1c-0.4-0.7-1.2-0.9-2-0.8l-0.4-1
				C91.6,62.3,90.9,61.8,90.3,61.4z"/>
			<path class="st0" d="M97.7,69.8c0.7-1.4,1.9-2.7,3-3.9c-0.8-0.3-1.8-0.3-2.5,0.1c-1.2,0.8-1.5,2.2-1.4,3.6l-1.7-0.4
				c0.2-0.6,0.4-1.1,0.4-1.7c-0.2-0.3-0.4-0.6-0.8-0.7c-0.6-0.1-1.1,0-1.5,0.5c-0.5,0.4-0.1,1-0.4,1.4c-0.5-0.1-1.1,0-1.6-0.3
				c0.2-0.8,0.2-1.7-0.4-2.4c-0.6-0.2-1.1-0.7-1.8-0.6c-0.7,0.1-1.4,0.5-1.8,1.1c-0.3,0.5-0.2,1.1-0.1,1.6c-0.6,0-1.2,0.3-1.8,0.2
				c0.2-0.3,0-0.7,0-1c-0.2-0.5-0.6-0.9-1.1-1c-0.4,0-0.8,0.2-1,0.5c-0.3,0.6-0.3,1.3,0.1,1.9c-0.4,0.3-0.9,0.4-1.3,0.4
				c0.1-0.8-0.2-1.6-0.4-2.3c-0.6-0.9-1.7-1.2-2.8-1.1c1.1,1.9,2.2,3.8,2.9,6c4.5-1.5,10.4-1.5,15-0.1C97.2,71,97.4,70.3,97.7,69.8z
				"/>
			<path class="st0" d="M95.8,74.8c0.2-0.6,0.5-1.2,0.4-1.8c-4.3-1.3-9.9-1.7-14.1-0.1c0.2,0.5,0.1,1.3,0.4,1.6
				C86.7,73.4,91.7,73.5,95.8,74.8z"/>
			<path class="st0" d="M95.7,77.4c0.2-0.4,0-0.8-0.3-1c-3.5-1.2-8.1-1.4-11.7-0.5c-0.3,0.1-0.7,0.4-0.8,0.7c-0.1,0.4,0.1,0.8,0.4,1
				c2.9,1.3,6.6,1.1,9.8,0.8C94.1,78.2,95.1,78.2,95.7,77.4z"/>
		</g>
		<g>
			<path class="st0" d="M42.2,65.7c0.5-0.8,1.4-1.4,2.3-1.5c1.6-0.3,2.9,0.5,3.8,1.6l1-0.5c0.3-0.2,0.7-0.2,0.8-0.6
				c-0.5-0.7-1.2-0.8-2-0.8c-0.1-0.4-0.2-0.9-0.5-1.3c-0.6-0.9-1.6-1.4-2.7-1.4c-0.9,0.1-1.7,0.4-2.1,1.2c-0.5,0.4-0.3,1.6-1.1,1.4
				c-0.6,0.1-1.4,0.4-1.4,1C41,64.9,41.6,65.3,42.2,65.7z"/>
			<path class="st0" d="M56.6,65.7c-0.9-0.4-2.1-0.3-2.8,0.2c-1.1,0.9-1.1,2.2-1.1,3.5c-0.6-0.1-1.1-0.3-1.6-0.4
				c0.3-0.5,0.4-1.1,0.3-1.7c-0.3-0.3-0.7-0.8-1.1-0.7c-0.4,0.1-0.9,0.2-1.2,0.7c-0.2,0.4-0.4,0.9-0.2,1.3c-0.5,0.1-1.1,0-1.6-0.2
				c0.2-0.5,0.2-1.2,0-1.7c-0.3-0.7-1.1-1.1-1.8-1.2c-0.7,0.1-1.3,0.2-1.8,0.7c-0.4,0.5-0.7,1.3-0.4,2c-0.6,0.1-1.2,0.3-1.8,0.3
				c0-0.5,0.1-1.1-0.2-1.6c-0.3-0.3-0.7-0.6-1.2-0.5c-0.4,0.1-0.8,0.4-0.9,0.8c-0.3,0.6,0,1.2,0.2,1.7c-0.4,0-0.8,0.5-1.3,0.3
				c0.1-0.8,0.1-1.6-0.4-2.3c-0.6-1-1.8-1.2-2.8-0.9c1.3,1.8,2.1,3.8,3,5.8c4.5-1.5,10.4-1.7,15.1-0.3
				C53.6,69.2,54.8,67.4,56.6,65.7z"/>
			<path class="st0" d="M38.3,72.8L38,73l0.4,1.6c4.1-1.2,9.3-1.2,13.4,0.1c0.1-0.6,0.5-1.2,0.3-1.8C47.9,71.5,42.5,71.5,38.3,72.8z
				"/>
			<path class="st0" d="M51.8,76.8c-0.2-0.6-0.9-0.7-1.5-0.9c-2.7-0.5-5.7-0.8-8.4-0.4c-1.1,0.3-3,0.2-3.1,1.5
				c0.2,0.6,0.9,0.8,1.4,1c3.5,0.6,7.6,0.8,10.9-0.2C51.5,77.6,51.8,77.2,51.8,76.8z"/>
		</g>
		<g>
			<path class="st0" d="M67.4,88.3c1.4-0.5,2.4,0.2,3.3,1.1c0.6,1.3,0.7,0.7,2,0.2c-0.3-0.8-1.6-1.6-1.9-1.7c-0.4-0.8-0.5-1-0.9-1.6
				c-0.8-0.8-1.5-0.7-2.4-0.7c-1.4,0.1-2,1.5-2.3,2.6c-0.5,0.4-1.2,0.6-1.4,1.2l1.2,0.7C65.6,89.3,66.4,88.6,67.4,88.3z"/>
			<path class="st0" d="M79.4,91.5c0.3-0.5,1-1,1.1-1.4c-0.7-0.1-1.5-0.1-2.2,0.1c-1.6,0.2-2,2-2.3,3.3l-1.7-0.4
				c0.1-0.7,0-1.3-0.4-1.8c-0.4-0.3-0.9-0.4-1.4-0.2c-0.6,0.3-0.8,1-1,1.6c-0.5-0.1-1.1,0.1-1.6-0.2c0.1-0.7,0.1-1.6-0.3-2.2
				c-0.4-0.4-0.8-0.7-1.4-0.7c-0.6,0-1.2,0.2-1.6,0.7c-0.4,0.5-0.6,1.2-0.5,2c-0.3,0.4-0.9,0.2-1.4,0.3c-0.5-0.5-0.1-1.3-0.8-1.7
				c-0.3-0.3-0.9-0.2-1.3-0.1c-0.4,0.2-0.7,0.6-0.9,1c-0.2,0.4,0.1,1-0.2,1.2c-2.3,1.4-0.6-1.9-1.9-2.7c-0.2-0.8-2.2-1.2-3.1-0.9
				c1.3,1.8,2.5,3.8,2.9,6l0.3,0c5.3-2,12.1-1,17.5,0.3C78.1,94.2,78.5,92.7,79.4,91.5z"/>
			<path class="st0" d="M76.7,97c-5-1.3-11.2-1.8-16.2-0.1c-0.9,0.1-0.1,0.9-0.1,1.4c4.8-1.8,10.9-1.1,15.8,0L76.7,97z"/>
			<path class="st0" d="M75.3,100.6c0.2-0.3,0.1-0.7-0.2-0.9c-0.9-0.5-2-0.7-3.1-0.8c-3.4-0.1-7.3-0.6-10.3,0.5
				c-0.4,0.2-0.9,0.5-0.7,1.1c0.7,0.7,1.8,0.7,2.7,0.9c3.1,0.2,6.3,0.2,9.4,0.1C73.8,101.3,74.7,101.2,75.3,100.6z"/>
		</g>
		<g>
			<path class="st0" d="M39.5,46.4c0.4-0.4,0.5-1,0.3-1.6c-0.2-0.5-0.7-0.6-1.2-0.7c-0.4,0.1-0.9,0.4-1,0.9c-0.1,0.6,0,1.1,0.5,1.5
				C38.6,46.8,39.1,46.7,39.5,46.4z"/>
			<path class="st0" d="M33.9,49.8c1.1,0.2,2-0.3,2.7-1c0.6-0.8,0.6-2,0.2-2.8c-0.3-0.6-0.9-1.2-1.6-1.4c-1.1-0.4-2.3,0.1-3,1
				c-0.5,0.6-0.5,1.6-0.4,2.4C32.1,48.8,33,49.6,33.9,49.8z"/>
			<path class="st0" d="M25.8,52.4c-0.9,2.3,1.1,4.2,1.5,6.2c1-2.7,2.2-5.3,3.6-7.9c0.2-0.8,0.1-1.6-0.6-2.2c-0.4-0.4-1-0.5-1.6-0.5
				c-0.4,0-0.7,0.2-0.9,0.5C27,49.5,27.3,51,27.6,52C26.9,52,26.2,51.9,25.8,52.4z"/>
			<path class="st0" d="M29.8,58.8c1.4-0.7,3.5-0.4,4.1-2.1c0.3-0.7-0.3-1.2-0.4-1.7c1.2,0.1,2.3-0.5,2.8-1.6c0-0.7,0.1-1.4-0.5-1.9
				c-0.7-0.9-2.2-0.8-3-0.2c-2,2.4-3,5.2-3.9,8L29.8,58.8z"/>
			<path class="st0" d="M24.1,58.1c-0.2,0.3-0.4,0.8-0.2,1.1c0.2,0.3,0.4,0.7,0.8,0.8c0.5,0.2,0.9-0.1,1.3-0.4
				c0.3-0.4,0.4-1.1,0-1.6C25.6,57.5,24.5,57.5,24.1,58.1z"/>
			<path class="st0" d="M32.3,61.3c0.2-0.4,0.3-0.9,0.1-1.3c-0.3-0.5-0.9-0.8-1.5-0.7c-0.6,0.2-0.8,0.7-0.8,1.3c0.1,0.6,0.4,1,1,1.1
				C31.6,61.9,32,61.7,32.3,61.3z"/>
			<path class="st0" d="M24.5,61.5c-0.5,0.9-0.8,2.2-0.4,3.2c0.5,1.2,1.6,2,2.9,2c1.3,0.1,2.3-0.6,3-1.5c0.5-1,0.7-2.4,0.1-3.3
				c-0.5-0.8-1.2-1.3-1.9-1.6C26.8,59.9,25.4,60.4,24.5,61.5z"/>
			<path class="st0" d="M28.5,76.4c0.5-1.7,3.3-2,2.8-4.1c-0.1-0.4-0.5-0.7-0.9-1c0-0.3,0.3-0.4,0.5-0.6c0.5-0.6,0.8-1.6,0.4-2.3
				c-0.3-0.4-0.7-0.9-1.2-1c-0.8-0.2-1.5,0.1-2,0.7c-1.2,2.9-0.1,6.3,0.1,9.2L28.5,76.4z"/>
			<path class="st0" d="M22.8,72c-1.2,2.8,2.5,3.5,3.7,5.7c0-0.9-0.1-2-0.3-2.9c-0.4-2.3,0.2-4.9-0.9-6.8c-0.4-0.3-0.9-0.6-1.5-0.6
				c-0.4,0.2-1,0.4-1.3,0.9c-0.4,0.5-0.3,1.3-0.1,1.9C22.3,70.8,24.2,71.4,22.8,72z"/>
			<path class="st0" d="M30.6,78.8c0.3-0.1,0.7-0.3,0.9-0.7c0.2-0.4,0.2-1-0.1-1.3c-0.3-0.5-1-0.7-1.5-0.6c-0.6,0.3-0.7,1-0.7,1.7
				C29.5,78.5,30,78.8,30.6,78.8z"/>
			<path class="st0" d="M24,80c0.4,0.3,0.8,0.3,1.3,0.1c0.5-0.3,0.7-1,0.5-1.5c-0.1-0.3-0.4-0.6-0.7-0.7c-0.4-0.1-0.7,0-1.1,0.1
				c-0.3,0.3-0.6,0.6-0.6,1C23.6,79.3,23.6,79.8,24,80z"/>
			<path class="st0" d="M28.6,85.3c1.3,0.1,2.5-0.7,3.1-1.8c0.5-0.9,0.3-2.1-0.1-3c-0.4-0.6-1-1.3-1.7-1.4c-1.2-0.4-2.5,0,3.3,0.9
				c0.9,0.8,1,2.3,0.6,3.4C26.3,84.5,27.4,85.2,28.6,85.3z"/>
			<path class="st0" d="M36.4,88.8c-0.3-0.6-0.8-0.6-1.3-1c0.3-0.7,0.3-1.7,0-2.3c-0.7-0.9-2.2-0.8-2.8,0c-0.5,0.4-0.5,1.2-0.4,1.8
				c0.9,2.5,2.1,5,4,7.1C35.6,92.4,36.8,90.7,36.4,88.8z"/>
			<path class="st0" d="M28.5,91.9c-0.2,0.5-0.1,1,0.3,1.4c1.7,1,3.9,1,5.7,1.9c-0.9-1.2-1.8-2.3-2.4-3.6c-0.9-1.4-1.2-3.5-2.9-4.3
				c-0.6-0.3-1.2,0.1-1.7,0.3c-0.5,0.5-1,1.2-0.6,2c0.5,0.9,1.3,1.5,2.3,1.6C28.9,91.5,28.5,91.5,28.5,91.9z"/>
			<path class="st0" d="M37.8,95.3c0.5,0.2,1,0.1,1.4-0.2c0.3-0.4,0.4-0.9,0.2-1.3c-0.3-0.6-1.1-0.9-1.7-0.7
				c-0.4,0.2-0.7,0.4-0.7,0.9C37.1,94.6,37.4,95,37.8,95.3z"/>
			<path class="st0" d="M34.3,98.6c0.5,0.1,0.9-0.3,1.2-0.6c0.1-0.5,0.2-1.1-0.2-1.5c-0.3-0.2-0.7-0.4-1.1-0.4
				c-0.4,0.1-0.7,0.3-0.9,0.5c-0.2,0.3-0.3,0.8-0.1,1.1C33.4,98.1,33.8,98.6,34.3,98.6z"/>
			<path class="st0" d="M40.3,102.2c0.8-0.4,1.6-1.1,1.8-2c0.1-0.8,0.1-1.7-0.4-2.4c-0.8-1.2-2.4-1.6-3.7-1.1
				c-0.9,0.3-1.5,1.3-1.7,2.2c-0.2,0.9,0.2,1.7,0.7,2.4C37.8,102.4,39,102.5,40.3,102.2z"/>
			<path class="st0" d="M47.7,103.7c1.3,0.8,2.5,1.6,3.7,2.2c-1-1.4-0.6-3.4-1.6-4.8c-0.6-0.6-1.4-0.8-2.2-0.8
				c-0.3-0.5-0.3-1.1-0.7-1.6c-0.4-0.7-1.1-1.1-2-1c-0.5,0.2-1,0.6-1.2,1.2C43.1,101.4,46,102.6,47.7,103.7z"/>
			<path class="st0" d="M44.8,108.3c2.1,0.3,3.8-1.3,5.7-1.3c-1-0.6-2.2-1.3-3.3-2c-1.7-0.9-3.1-2.3-5.1-2.5
				c-0.7,0.1-1.3,0.6-1.7,1.2c-0.2,0.4-0.3,1.2,0.1,1.6c0.7,0.9,2,0.9,3,0.9C43.6,107.1,44,108,44.8,108.3z"/>
			<path class="st0" d="M54.5,105.7c0.3-0.3,0.3-0.8,0.2-1.3c-0.2-0.7-0.9-0.9-1.5-1c-0.4,0.1-0.7,0.2-0.9,0.6
				c-0.2,0.4-0.3,0.9-0.1,1.3c0.2,0.3,0.5,0.6,0.8,0.8C53.6,106.5,54.1,106.2,54.5,105.7z"/>
			<path class="st0" d="M54.5,110.4c0.6,0.5,1.5,0.7,2.2,0.4c0.6-0.3,1.2-0.8,1.5-1.4c0.4-0.7,0.2-1.6-0.1-2.3
				c-0.6-0.9-1.7-1.5-2.8-1.2c-0.9,0.3-1.6,0.9-1.8,1.8C53.2,108.8,53.6,109.9,54.5,110.4z"/>
			<path class="st0" d="M49.6,108.9c-0.1,0.5,0.2,1,0.6,1.4c0.4,0,0.8,0.3,1.2,0.1c0.4,0,0.7-0.5,0.9-0.9c0.2-0.6,0-1.1-0.4-1.5
				c-0.4-0.3-0.8-0.3-1.3-0.4C50.1,107.9,49.5,108.4,49.6,108.9z"/>
		</g>
		<g>
			<path class="st0" d="M69.3,110c2-1.8,3.4-4,4.6-6.2c-0.6-0.1-1.1,0-1.5,0.2c-1,1.9-2.3,3.6-3.8,5.3l0,0.3
				C68.8,109.7,69,109.8,69.3,110z"/>
			<path class="st0" d="M63.7,103.9l-1.4-0.2c1.1,2.8,2.9,5.5,5,7.7c2.5,2.3,5.3,4.3,8.6,4.9C70.8,114.1,65.7,109.3,63.7,103.9z"/>
			<path class="st0" d="M69.3,104.2l-3.1-0.1l0,2.1c0.4,0.7,1.1,1.4,1.6,2l1.7-2.3C69.3,105.4,69.5,104.7,69.3,104.2z"/>
			<path class="st0" d="M66.1,111.8c-2.5,2.1-5.3,3.8-8.2,4.7c3.3-0.5,6.4-1.8,9-4C66.7,112.2,66.4,111.9,66.1,111.8z"/>
			<path class="st0" d="M70.7,118.6c-1.7-0.6-1.4-2.4-1.4-3.9c-0.5-0.4-1.1-0.8-1.6-1.1l-1.4,1l0,1.9c-0.2,0.9-0.9,1.6-1.6,2
				C66.4,119.6,69.1,119.4,70.7,118.6z"/>
		</g>
		<g>
			<path class="st0" d="M95.8,46.4c-0.4-0.4-0.5-1-0.3-1.6c0.2-0.5,0.7-0.6,1.2-0.7c0.4,0.1,0.9,0.4,1,0.9c0.1,0.6,0,1.1-0.5,1.5
				C96.7,46.7,96.2,46.7,95.8,46.4z"/>
			<path class="st0" d="M101.5,49.7c-1.1,0.2-2-0.3-2.7-1c-0.6-0.8-0.6-2-0.2-2.8c0.3-0.6,0.9-1.2,1.6-1.4c1.1-0.4,2.3,0.1,3,1
				c0.5,0.6,0.5,1.6,0.4,2.4C103.2,48.8,102.3,49.5,101.5,49.7z"/>
			<path class="st0" d="M109.5,52.4c0.9,2.3-1.1,4.2-1.5,6.2c-1-2.7-2.2-5.3-3.6-7.9c-0.2-0.8-0.1-1.6,0.6-2.2
				c0.4-0.4,1-0.5,1.6-0.5c0.4,0,0.7,0.2,0.9,0.5c0.8,0.9,0.5,2.4,0.2,3.4C108.4,52,109.1,51.8,109.5,52.4z"/>
			<path class="st0" d="M105.6,58.8c-1.4-0.7-3.4-0.4-4.1-2.1c-0.3-0.7,0.3-1.2,0.4-1.7c-1.2,0.1-2.3-0.5-2.8-1.6
				c0-0.7-0.1-1.4,0.5-1.9c0.7-0.9,2.2-0.8,3-0.2c2,2.4,3,5.2,3.9,8L105.6,58.8z"/>
			<path class="st0" d="M111.2,58c0.2,0.3,0.4,0.8,0.2,1.1c-0.2,0.3-0.4,0.7-0.8,0.8c-0.5,0.2-0.9-0.1-1.3-0.4
				c-0.3-0.4-0.4-1.1,0-1.6C109.7,57.4,110.8,57.5,111.2,58z"/>
			<path class="st0" d="M103,61.3c-0.2-0.4-0.3-0.9-0.1-1.3c0.3-0.5,0.9-0.8,1.5-0.7c0.6,0.2,0.8,0.7,0.8,1.3c-0.1,0.6-0.4,1-1,1.1
				C103.8,61.9,103.3,61.6,103,61.3z"/>
			<path class="st0" d="M110.8,61.5c0.5,0.9,0.8,2.2,0.4,3.2c-0.5,1.2-1.6,2-2.9,2c-1.3,0.1-2.3-0.6-3-1.5c-0.5-1-0.7-2.4-0.1-3.3
				c0.5-0.8,1.2-1.3,1.9-1.6C108.6,59.9,109.9,60.4,110.8,61.5z"/>
			<path class="st0" d="M106.8,76.4c-0.5-1.7-3.3-2-2.8-4.1c0.1-0.4,0.5-0.7,0.9-1c0-0.3-0.3-0.4-0.5-0.6c-0.5-0.6-0.8-1.6-0.4-2.3
				c0.3-0.4,0.7-0.9,1.2-1c0.8-0.2,1.5,0.1,2,0.7c1.2,2.9,0.1,6.3-0.1,9.2L106.8,76.4z"/>
			<path class="st0" d="M112.5,72c1.2,2.8-2.5,3.5-3.7,5.7c0-0.9,0.1-2,0.3-2.9c0.4-2.3-0.2-4.9,0.9-6.8c0.4-0.3,0.9-0.6,1.5-0.6
				c0.4,0.2,1,0.4,1.3,0.9c0.4,0.5,0.3,1.3,0.1,1.9C113,70.8,111.1,71.4,112.5,72z"/>
			<path class="st0" d="M104.7,78.8c-0.3-0.1-0.7-0.3-0.9-0.7c-0.2-0.4-0.2-1,0.1-1.3c0.3-0.5,1-0.7,1.5-0.6c0.6,0.3,0.7,1,0.7,1.7
				C105.8,78.5,105.3,78.8,104.7,78.8z"/>
			<path class="st0" d="M111.3,79.9c-0.4,0.3-0.8,0.3-1.3,0.1c-0.5-0.3-0.7-1-0.5-1.5c0.1-0.3,0.4-0.6,0.7-0.7
				c0.4-0.1,0.7,0,1.1,0.1c0.3,0.3,0.6,0.6,0.6,1C111.7,79.3,111.7,79.7,111.3,79.9z"/>
			<path class="st0" d="M106.7,85.3c-1.3,0.1-2.5-0.7-3.1-1.8c-0.5-0.9-0.3-2.1,0.1-3c0.4-0.6,1-1.3,1.7-1.4c1.2-0.4,2.5,0,3.3,0.9
				c0.9,0.8,1,2.3,0.6,3.4C109.1,84.5,107.9,85.1,106.7,85.3z"/>
			<path class="st0" d="M99,88.8c0.3-0.6,0.8-0.6,1.3-1c-0.3-0.7-0.3-1.7,0-2.3c0.7-0.9,2.2-0.8,2.8,0c0.5,0.4,0.5,1.2,0.4,1.8
				c-0.9,2.5-2.1,5-4,7.1C99.7,92.3,98.5,90.7,99,88.8z"/>
			<path class="st0" d="M106.9,91.9c0.2,0.5,0.1,1-0.3,1.4c-1.7,1-3.9,1-5.7,1.9c0.9-1.2,1.8-2.3,2.4-3.6c0.9-1.4,1.2-3.5,2.9-4.3
				c0.6-0.3,1.2,0.1,1.7,0.3c0.5,0.5,1,1.2,0.6,2c-0.5,0.9-1.3,1.5-2.3,1.6C106.4,91.5,106.8,91.5,106.9,91.9z"/>
			<path class="st0" d="M97.5,95.2c-0.5,0.2-1,0.1-1.4-0.2c-0.3-0.4-0.4-0.9-0.2-1.3c0.3-0.6,1.1-0.9,1.7-0.7
				c0.4,0.2,0.7,0.4,0.7,0.9C98.2,94.5,97.9,94.9,97.5,95.2z"/>
			<path class="st0" d="M101,98.5c-0.5,0.1-0.9-0.3-1.2-0.6c-0.1-0.5-0.2-1.1,0.2-1.5c0.3-0.2,0.7-0.4,1.1-0.4
				c0.4,0.1,0.7,0.3,0.9,0.5c0.2,0.3,0.3,0.8,0.1,1.1C102,98.1,101.5,98.5,101,98.5z"/>
			<path class="st0" d="M95.1,102.2c-0.8-0.4-1.6-1.1-1.8-2c-0.1-0.8-0.1-1.7,0.4-2.4c0.8-1.2,2.4-1.6,3.7-1.1
				c0.9,0.3,1.5,1.3,1.7,2.2c0.2,0.9-0.2,1.7-0.7,2.4C97.5,102.3,96.3,102.4,95.1,102.2z"/>
			<path class="st0" d="M87.6,103.6c-1.3,0.8-2.5,1.6-3.7,2.2c1-1.4,0.6-3.4,1.6-4.8c0.6-0.6,1.4-0.8,2.2-0.8
				c0.3-0.5,0.3-1.1,0.7-1.6c0.4-0.7,1.1-1.1,2-1c0.5,0.2,1,0.7,1.2,1.2C92.2,101.3,89.3,102.5,87.6,103.6z"/>
			<path class="st0" d="M90.5,108.2c-2.1,0.3-3.8-1.3-5.7-1.3c1-0.6,2.2-1.3,3.3-2c1.7-0.9,3.1-2.3,5.1-2.5c0.7,0.1,1.3,0.6,1.7,1.2
				c0.2,0.4,0.3,1.2-0.1,1.6c-0.7,0.9-1.9,0.9-3,0.9C91.8,107.1,91.3,107.9,90.5,108.2z"/>
			<path class="st0" d="M80.8,105.7c-0.3-0.3-0.3-0.8-0.2-1.3c0.2-0.7,0.9-0.9,1.5-0.9c0.4,0.1,0.7,0.2,0.9,0.6
				c0.2,0.4,0.3,0.9,0.1,1.3c-0.2,0.3-0.5,0.6-0.8,0.8C81.7,106.4,81.2,106.1,80.8,105.7z"/>
			<path class="st0" d="M80.9,110.4c-0.6,0.5-1.5,0.7-2.2,0.4c-0.6-0.3-1.2-0.8-1.5-1.4c-0.4-0.7-0.2-1.6,0.2-2.3
				c0.6-0.9,1.7-1.5,2.8-1.2c0.9,0.3,1.6,0.9,1.8,1.8C82.1,108.7,81.7,109.8,80.9,110.4z"/>
			<path class="st0" d="M85.8,108.9c0.1,0.5-0.2,1-0.6,1.4c-0.4,0-0.8,0.3-1.2,0.1c-0.4,0-0.7-0.5-0.9-0.9c-0.2-0.6,0-1.1,0.4-1.5
				c0.4-0.3,0.8-0.3,1.3-0.4C85.3,107.9,85.8,108.4,85.8,108.9z"/>
		</g>
		<path class="st0" d="M90.4,32.6c-0.8,0.2-1.7,0.2-2.4-0.1c-2.2-1.4-4.5-2.6-6.7-3.8l1.6-0.3C85.7,29,88.1,31.1,90.4,32.6z"/>
		<path class="st0" d="M83,33.2c-1.6-0.9-3.3-1.9-4.8-2.8c0.6,0,1-0.5,1.6-0.4c2.2,0.8,4.3,1.8,6.1,3.3C85,33.6,84,33.6,83,33.2z"/>
		<path class="st0" d="M81.3,34.2c-2.6,0.7-4.5-1.1-6.4-2.3C77.5,31.1,79.5,33.1,81.3,34.2z"/>
		<path class="st0" d="M77,34.9c-2.2,0.6-4-0.8-5.5-2C73.8,32.1,75.4,33.8,77,34.9z"/>
		<path class="st0" d="M93.3,34.4c2.7,2.1,5.4,4.2,7.9,6.7c-1,0.1-2.2-0.1-2.9-0.8c-2.6-2.2-5.5-4.6-8.2-6.5
			C91.2,33.7,92.4,33.7,93.3,34.4z"/>
		<path class="st0" d="M73.5,35.9c-0.5,0-1.2,0.1-1.7-0.1c-0.6-0.2-1-0.9-0.9-1.6C71.8,34.7,72.6,35.3,73.5,35.9z"/>
		<path class="st0" d="M93,38.4c-0.7,0.1-1.7,0.2-2.4,0c-1.8-0.9-3.6-2.4-5.2-3.6C88.6,33.7,90.6,37.1,93,38.4z"/>
		<path class="st0" d="M86.9,38.3l-0.7,0.1c-2.3,0.5-3.8-1.6-5.4-2.7l1.8-0.1C84.4,35.9,85.5,37.5,86.9,38.3z"/>
		<path class="st0" d="M77.7,36c1.6-0.2,2.7,1.1,3.9,2c-2,0.5-3.7-0.7-5.1-1.9C76.9,36.2,77.2,36,77.7,36z"/>
		<path class="st0" d="M72.8,37c1.5-0.5,2.9,0.1,4,1.1C75.3,38.9,73.9,37.7,72.8,37z"/>
		<g>
			<path class="st0" d="M65.5,69c-1-0.5-1.9-1.2-2.9-1.6c-3.5,2.7-5,6.8-4.5,11.2c0.4,3.2,2.6,6.7,5.8,7.9c0-0.8,0.5-1.4,0.6-2.1
				c-2.3-1.4-3.4-3.8-3.7-6.3C60.4,74.4,62.4,71.2,65.5,69z"/>
			<path class="st0" d="M69.6,83.2l0.1-11.6c-1.1-1.1-2.6-1.8-4-2.5l0.2,14C67,82.7,68.5,82.8,69.6,83.2z"/>
			<path class="st0" d="M74.8,61.3c-1.7,1.1-3.2,1.9-5,2.8L69.7,64L70,39.4l-0.1-6.3c-1.5,0.2-3,0.1-4.5,0l-0.2,0.1l0,6.7l0.3,21.9
				l0.1,0.4c2.5,0.9,4.8,2.4,7,3.8c2.2-1.1,4.6-2.4,6.6-3.9c3.4-2.5,5.6-6.2,4.9-10.5c-0.2-2.6-2.5-4.5-4.6-5.7
				c0.5-0.4,1.1-0.7,1.6-1.2l0-0.1c-2.5,0.3-4.5-0.9-6.8-0.7c-0.6,0.1-0.9,0.6-1.1,1.1c-0.6,0.1-1.3,0.1-1.8,0.5
				c-0.6,0.5-0.9,1.2-0.9,2c0.7-0.2,1.6-0.3,2.4,0c0.4,0.3,1,0.8,1,1.4c0,0.5-0.2,0.9-0.6,1.1c-0.2,0.3-0.9,0.2-0.8,0.6
				c0.5,0.5,1.3,0.9,2.1,0.6c0.7-0.2,1.2-0.9,1.4-1.5c0.6-0.2,1.2,0.3,1.8,0.4c1.5,0.8,2.3,2.5,2.3,4.1
				C80.2,57.4,77.4,59.7,74.8,61.3z M74.2,45.1c0.2-0.3,0.4-0.5,0.6-0.5c1.3-0.1,1.9,0.3,2.9,0.6C76.6,45.6,75.3,45.8,74.2,45.1z"/>
			<path class="st0" d="M62.3,47.2c0.6-0.4,1.6-0.1,2.3,0.1c0-0.7-0.3-1.3-0.7-1.8c-0.6-0.8-1.9-0.2-2.2-1.1
				c-0.4-0.6-1.1-0.7-1.8-0.7c-1.9,0.5-3.7,1-5.8,1c0.4,0.5,1.1,0.8,1.6,1.3c-0.3,0.2-0.6,0.3-0.9,0.5c-2.7,1.6-4,4.4-3.7,7.6
				c0.8,7.3,8.8,10.1,14,13.2c3.5,2.1,8.3,4.2,9.2,8.7c0.8,3.3-0.1,6.9-2.8,9.1c0.4,0.6,0.6,1.3,0.9,2c1.5-0.9,3.1-2.3,3.8-3.9
				c2-3.5,1.4-8.6-0.7-11.8c-4.6-6.1-12.1-7.2-17.7-11.9c-1.8-1.7-3.2-3.9-2.5-6.5c0.4-1.5,1.6-2.9,3.2-3.2c1.2-0.6,0.8,1,1.6,1.3
				c0.5,0.2,1.3,0.3,1.9,0.1c0.3-0.2,0.6-0.4,0.7-0.8L62.2,50c-0.4-0.3-1.1-0.7-1-1.3C61.2,48.1,61.7,47.5,62.3,47.2z M57.5,45.2
				c1-0.2,2-0.8,3-0.6l0.4,0.5C59.4,45.8,58.5,45.7,57.5,45.2z"/>
		</g>
	</g>
	<g>
		<path class="st0" d="M2.4,62.3l0.8,1.5c-0.5,0.3-0.8,0.5-1,0.7c-0.2,0.3-0.3,0.6-0.3,1c0,0.5,0.1,0.9,0.4,1.3
			c0.3,0.3,0.6,0.5,1,0.5c0.6,0,1.1-0.4,1.5-1.2l0.5-1.2c0.4-1,0.9-1.6,1.5-2.1s1.3-0.6,2.1-0.6c1.1,0,2,0.4,2.7,1.2
			c0.7,0.8,1,1.7,1,2.8c0,1-0.4,1.9-1,2.5c-0.6,0.6-1.5,1-2.6,1.1l-0.3-1.8c0.7-0.1,1.2-0.2,1.5-0.4c0.5-0.4,0.8-0.9,0.8-1.6
			c0-0.6-0.1-1-0.5-1.4C10,64.3,9.6,64.1,9,64.1c-0.2,0-0.4,0-0.6,0.1S8,64.3,7.8,64.4c-0.2,0.1-0.3,0.3-0.5,0.5
			c-0.2,0.2-0.3,0.5-0.4,0.8l-0.5,1.1c-0.8,1.6-1.8,2.4-3.1,2.3c-0.9,0-1.6-0.4-2.2-1.1c-0.6-0.7-0.9-1.6-0.8-2.6
			C0.3,64.1,1,63,2.4,62.3z"/>
		<path class="st0" d="M3.6,54.3l10,2.1l-0.4,1.8L3.3,56l-0.5,2.7L1,58.4l1.5-7.1l1.7,0.3L3.6,54.3z"/>
		<path class="st0" d="M8.7,50.1c-1.5-0.7-2.6-1.8-3.3-3.4c-0.6-1.6-0.6-3.2,0.1-4.8c0.7-1.6,1.8-2.7,3.4-3.3c1.6-0.7,3.2-0.6,4.8,0
			c1.6,0.7,2.7,1.8,3.3,3.4c0.6,1.6,0.6,3.2-0.1,4.8c-0.6,1.4-1.6,2.5-3.1,3.2C12.2,50.9,10.5,50.9,8.7,50.1z M9.5,48.5
			c1.2,0.5,2.4,0.5,3.5,0c1.1-0.5,1.9-1.3,2.4-2.3c0.5-1.2,0.5-2.3,0-3.4c-0.5-1.1-1.3-1.9-2.4-2.4c-1.2-0.5-2.3-0.5-3.4-0.1
			c-1.1,0.4-1.9,1.2-2.4,2.4c-0.5,1.1-0.5,2.3,0,3.4C7.5,47.2,8.3,48,9.5,48.5z"/>
		<path class="st0" d="M16.4,25.5l1.7,1.2c-1.3,0.3-2.3,1-3,1.9c-0.7,1-1,2.1-0.7,3.3c0.2,1.2,0.8,2.2,1.9,2.9c1,0.7,2.1,1,3.3,0.8
			c1.2-0.2,2.1-0.8,2.9-1.8c0.4-0.5,0.6-1,0.7-1.5c0.1-0.3,0.1-0.6,0.1-0.9c0-0.3,0-0.7,0-1.1l1.8,1.3c-0.1,1.2-0.5,2.2-1.2,3.1
			c-1,1.4-2.3,2.2-4,2.5c-1.7,0.3-3.2-0.1-4.6-1.1c-1.2-0.9-2-2.1-2.4-3.6c-0.5-1.9-0.1-3.6,1-5.2C14.5,26.6,15.3,25.9,16.4,25.5z"
			/>
		<path class="st0" d="M24.3,23.2l0.3-6.7l1.8-1.6L26,22.6l8.4,1.2l-1.8,1.6l-6.8-1.1l0,0.5l3.3,3.7l-1.3,1.2l-8-8.9l1.3-1.2
			L24.3,23.2z"/>
		<path class="st0" d="M34.6,15.1l4.5-2.6l-2.3-4.1l1.6-0.9l5.9,10.4l-1.6,0.9L39.9,14l-4.5,2.6l2.8,4.8l-1.6,0.9l-5.9-10.4l1.6-0.9
			L34.6,15.1z"/>
		<path class="st0" d="M44.4,11.1c-0.5-1.6-0.3-3.2,0.5-4.7c0.8-1.5,2.1-2.5,3.7-3c1.6-0.5,3.2-0.3,4.7,0.5c1.5,0.8,2.5,2,3,3.7
			c0.5,1.6,0.3,3.2-0.5,4.7c-0.8,1.5-2.1,2.5-3.8,3c-1.5,0.4-3,0.3-4.4-0.3C46,14.2,44.9,12.9,44.4,11.1z M46.1,10.6
			c0.4,1.3,1.1,2.2,2.2,2.7c1.1,0.6,2.2,0.7,3.3,0.4c1.2-0.4,2.1-1.1,2.7-2.2c0.6-1.1,0.7-2.2,0.3-3.4c-0.4-1.2-1.1-2.1-2.1-2.7
			c-1.1-0.6-2.2-0.7-3.4-0.3c-1.2,0.4-2.1,1.1-2.6,2.1C45.9,8.3,45.8,9.4,46.1,10.6z"/>
		<path class="st0" d="M61.2,1.2l1,10.2l3.5-0.3l0.2,1.7l-5.3,0.5L59.4,1.3L61.2,1.2z"/>
		<path class="st0" d="M68.6,12.4L72.7,0l2.9,9.7L81,1.1l0.6,13l-1.8-0.2l-0.2-7.3L75,13.8l-2.4-8.1l-2.2,7L68.6,12.4z"/>
		<path class="st0" d="M100.4,11l-1.7,0.1c0-0.5-0.1-0.9-0.3-1.2c-0.2-0.3-0.4-0.5-0.8-0.7c-0.4-0.2-0.9-0.3-1.3-0.2
			c-0.4,0.1-0.7,0.3-0.9,0.7c-0.3,0.5-0.1,1.1,0.5,1.8l0.8,1c0.7,0.8,1.1,1.5,1.3,2.2c0.2,0.7,0,1.4-0.3,2.2c-0.5,1-1.2,1.6-2.2,2
			c-1,0.3-2,0.2-2.9-0.2c-0.9-0.5-1.6-1.1-1.9-2c-0.3-0.8-0.3-1.8,0-2.9l1.8,0.5c-0.2,0.7-0.3,1.2-0.3,1.5c0.1,0.6,0.5,1.1,1.1,1.4
			c0.5,0.2,1,0.3,1.5,0.1c0.5-0.2,0.9-0.5,1.1-1c0.1-0.2,0.2-0.4,0.2-0.6c0-0.2,0-0.4,0-0.6c-0.1-0.2-0.1-0.4-0.3-0.6
			c-0.1-0.2-0.3-0.5-0.5-0.7l-0.8-0.9c-1.2-1.3-1.4-2.6-0.9-3.8c0.4-0.8,1-1.3,1.9-1.6c0.9-0.2,1.8-0.1,2.7,0.3
			C99.6,8.4,100.3,9.5,100.4,11z"/>
		<path class="st0" d="M112,17.8l-1.3,1.7c-0.3-1.3-0.9-2.3-1.8-3c-1-0.7-2.1-1-3.3-0.8c-1.2,0.2-2.2,0.8-3,1.8
			c-0.8,1-1.1,2.1-0.9,3.3c0.2,1.2,0.7,2.2,1.7,2.9c0.5,0.4,1,0.6,1.5,0.7c0.3,0.1,0.5,0.1,0.9,0.1c0.3,0,0.7,0,1.1,0l-1.3,1.7
			c-1.2-0.2-2.2-0.6-3.1-1.3c-1.4-1-2.2-2.4-2.4-4.1c-0.2-1.7,0.2-3.2,1.2-4.6c0.9-1.2,2.1-2,3.7-2.3c1.9-0.4,3.6,0,5.2,1.2
			C110.9,15.9,111.5,16.8,112,17.8z"/>
		<path class="st0" d="M114,25.5l3.3,3.9l3.5-3l1.2,1.4l-9.1,7.8l-1.2-1.4l4.2-3.6l-3.3-3.9l-4.2,3.6l-1.2-1.4l9.1-7.8l1.2,1.4
			L114,25.5z"/>
		<path class="st0" d="M119.6,34.3c1.5-0.8,3.1-0.9,4.7-0.4c1.6,0.5,2.9,1.6,3.7,3.1c0.8,1.5,0.9,3.1,0.4,4.7
			c-0.5,1.6-1.5,2.9-3,3.7c-1.5,0.8-3.1,0.9-4.7,0.4c-1.6-0.5-2.9-1.6-3.7-3.1c-0.7-1.4-0.9-2.8-0.5-4.4
			C116.8,36.5,117.9,35.1,119.6,34.3z M120.4,35.9c-1.2,0.6-1.9,1.5-2.3,2.7c-0.3,1.2-0.2,2.3,0.3,3.3c0.6,1.1,1.5,1.8,2.6,2.2
			c1.2,0.4,2.3,0.2,3.4-0.3c1.1-0.6,1.9-1.5,2.2-2.6c0.4-1.2,0.3-2.3-0.3-3.4c-0.6-1.1-1.4-1.8-2.6-2.2
			C122.7,35.2,121.5,35.3,120.4,35.9z"/>
		<path class="st0" d="M126.5,48.2c1.6-0.4,3.2-0.1,4.6,0.8c1.5,0.9,2.4,2.2,2.8,3.9c0.4,1.7,0.1,3.2-0.8,4.7
			c-0.9,1.5-2.2,2.4-3.8,2.8c-1.7,0.4-3.2,0.1-4.7-0.8c-1.5-0.9-2.4-2.2-2.8-3.9c-0.4-1.5-0.2-3,0.6-4.4
			C123.3,49.7,124.6,48.6,126.5,48.2z M126.9,50c-1.3,0.3-2.2,1-2.9,2c-0.6,1.1-0.8,2.1-0.5,3.3c0.3,1.2,1,2.2,2,2.8
			c1,0.6,2.2,0.8,3.4,0.5c1.2-0.3,2.2-1,2.8-2c0.6-1,0.8-2.1,0.5-3.4c-0.3-1.2-0.9-2.1-2-2.8C129.2,49.9,128.1,49.7,126.9,50z"/>
		<path class="st0" d="M135.4,66.6l-10.2,0.2l0.1,3.5l-1.7,0l-0.1-5.3l11.9-0.2L135.4,66.6z"/>
	</g>
	<g>
		<path class="st0" d="M10.5,94.9c1.5-0.8,3-1,4.7-0.6c1.7,0.5,2.9,1.4,3.8,2.9c0.9,1.5,1.1,3,0.6,4.7c-0.4,1.7-1.4,2.9-2.9,3.8
			c-1.5,0.9-3.1,1.1-4.7,0.6c-1.7-0.5-2.9-1.4-3.8-3c-0.8-1.3-1-2.8-0.7-4.4C7.8,97.3,8.8,95.9,10.5,94.9z M11.4,96.5
			c-1.1,0.7-1.9,1.6-2.1,2.8c-0.3,1.2-0.1,2.3,0.4,3.3c0.6,1.1,1.5,1.8,2.7,2.1c1.2,0.3,2.3,0.1,3.4-0.5c1.1-0.6,1.8-1.5,2.1-2.7
			c0.3-1.2,0.2-2.3-0.5-3.4c-0.6-1.1-1.5-1.8-2.7-2.1C13.6,95.7,12.5,95.9,11.4,96.5z"/>
		<path class="st0" d="M26.1,109.9l-2.7-3.1l-2.2,1.9l2.7,3l-1.3,1.1l-2.7-3l-4.3,3.8l-1.2-1.4l9-7.9l3.9,4.5L26.1,109.9z"/>
		<path class="st0" d="M38.6,119.6l-4-2.6l-1.6,2.4l3.9,2.6l-0.9,1.4l-3.9-2.6l-2.2,3.3l4,2.6l-0.9,1.4l-5.5-3.6l6.6-10l5.5,3.6
			L38.6,119.6z"/>
		<path class="st0" d="M50,123.6l-0.8,2c-0.6-1.2-1.4-2-2.5-2.5c-1.1-0.5-2.3-0.5-3.4,0c-1.1,0.5-1.9,1.3-2.4,2.5
			c-0.5,1.2-0.5,2.3-0.1,3.4c0.4,1.1,1.2,1.9,2.4,2.4c0.6,0.2,1.1,0.4,1.6,0.3c0.3,0,0.6,0,0.9-0.1c0.3-0.1,0.7-0.1,1-0.3l-0.8,2
			c-1.2,0.1-2.3,0-3.3-0.5c-1.6-0.7-2.7-1.8-3.3-3.3c-0.6-1.6-0.6-3.1,0-4.7c0.6-1.4,1.6-2.5,3-3.2c1.7-0.9,3.5-0.9,5.3-0.2
			C48.4,122,49.3,122.7,50,123.6z"/>
		<path class="st0" d="M50.9,129.5c0.3-1.7,1.1-3,2.6-3.9c1.4-1,3-1.3,4.7-1c1.7,0.3,3,1.1,4,2.6c1,1.4,1.3,3,1,4.6
			c-0.3,1.7-1.2,3-2.6,4c-1.4,1-3,1.3-4.7,1c-1.5-0.3-2.8-1-3.8-2.3C51,133,50.6,131.4,50.9,129.5z M52.7,129.9
			c-0.2,1.3,0,2.4,0.8,3.4c0.7,1,1.7,1.6,2.8,1.8c1.2,0.2,2.3,0,3.3-0.7c1-0.7,1.6-1.7,1.8-2.9c0.2-1.3,0-2.4-0.7-3.4
			c-0.7-1-1.6-1.6-2.9-1.8c-1.2-0.2-2.3,0-3.3,0.7C53.5,127.7,52.9,128.6,52.7,129.9z"/>
		<path class="st0" d="M67.1,137.8L66.3,125l9.3,8.5l-0.5-8.3l1.8-0.1l0.8,12.6l-9.3-8.5l0.5,8.3L67.1,137.8z"/>
		<path class="st0" d="M80.6,130.6c-0.5-1.6-0.3-3.2,0.5-4.7c0.8-1.5,2-2.5,3.7-3c1.6-0.5,3.2-0.4,4.7,0.5c1.5,0.8,2.5,2,3,3.6
			c0.5,1.6,0.4,3.2-0.5,4.7c-0.8,1.5-2.1,2.5-3.7,3c-1.5,0.5-3,0.4-4.4-0.3C82.2,133.7,81.1,132.4,80.6,130.6z M82.3,130.1
			c0.4,1.3,1.1,2.2,2.2,2.7c1.1,0.6,2.2,0.7,3.3,0.3c1.2-0.4,2.1-1.1,2.6-2.2c0.6-1.1,0.7-2.2,0.3-3.4c-0.4-1.2-1.1-2.1-2.2-2.7
			c-1.1-0.6-2.2-0.7-3.4-0.3c-1.2,0.4-2.1,1.1-2.6,2.2C82,127.7,81.9,128.9,82.3,130.1z"/>
		<path class="st0" d="M97.8,131.1l-4.5-12.3l8.3,5.8l-1.2-10.1l8.6,9.8l-1.6,1l-4.7-5.6l1,8.5l-7-4.9l2.6,6.8L97.8,131.1z"/>
		<path class="st0" d="M106.3,110.7l7.9,8.9l-1.4,1.2l-7.9-8.9L106.3,110.7z"/>
		<path class="st0" d="M115.4,101.7l1.6,1.4c-1.3,0.2-2.4,0.8-3.1,1.6c-0.8,0.9-1.1,2-1,3.2c0.1,1.2,0.7,2.2,1.6,3
			c1,0.8,2,1.2,3.2,1.1c1.2-0.1,2.2-0.6,3-1.5c0.4-0.5,0.7-1,0.8-1.4c0.1-0.3,0.1-0.5,0.2-0.9c0-0.3,0.1-0.7,0.1-1.1l1.7,1.4
			c-0.2,1.2-0.7,2.2-1.4,3c-1.1,1.3-2.5,2-4.2,2.2c-1.7,0.1-3.2-0.3-4.5-1.4c-1.2-1-1.9-2.2-2.1-3.8c-0.3-1.9,0.2-3.6,1.4-5.1
			C113.4,102.7,114.3,102.1,115.4,101.7z"/>
		<path class="st0" d="M121.2,93.6l0.1,1.7c-0.5,0-0.9,0.1-1.2,0.2c-0.3,0.1-0.5,0.4-0.7,0.8c-0.2,0.4-0.3,0.9-0.2,1.3
			c0.1,0.4,0.3,0.7,0.7,0.9c0.5,0.3,1.1,0.1,1.9-0.5l1-0.8c0.8-0.7,1.6-1.1,2.3-1.2c0.7-0.1,1.4,0,2.1,0.4c1,0.5,1.6,1.3,1.9,2.3
			c0.3,1,0.2,2-0.4,2.9c-0.5,0.9-1.2,1.5-2,1.8c-0.9,0.3-1.8,0.2-2.9-0.1l0.5-1.8c0.7,0.3,1.2,0.4,1.5,0.3c0.6-0.1,1.1-0.4,1.5-1.1
			c0.3-0.5,0.3-1,0.2-1.5c-0.2-0.5-0.5-0.9-1-1.2c-0.2-0.1-0.4-0.2-0.6-0.2c-0.2,0-0.4,0-0.6,0c-0.2,0-0.4,0.1-0.7,0.2
			c-0.2,0.1-0.5,0.3-0.7,0.5l-1,0.8c-1.4,1.1-2.7,1.3-3.8,0.7c-0.8-0.4-1.3-1.1-1.5-2c-0.2-0.9-0.1-1.8,0.4-2.7
			C118.5,94.3,119.7,93.6,121.2,93.6z"/>
	</g>
	<circle class="st0" cx="5.6" cy="82.2" r="1.6"/>
	<circle class="st0" cx="128" cy="82.2" r="1.6"/>
	<line class="st1" x1="0" y1="147.5" x2="135.5" y2="147.5"/>
	<g>
		<path class="st0" d="M39.7,159.8l-1.5,0.9c-0.3-0.5-0.5-0.8-0.8-0.9c-0.3-0.2-0.6-0.3-1-0.3c-0.5,0-0.9,0.1-1.3,0.4
			c-0.3,0.3-0.5,0.6-0.5,1.1c0,0.6,0.4,1.1,1.3,1.4l1.2,0.5c1,0.4,1.7,0.9,2.2,1.5s0.7,1.3,0.7,2.1c0,1.1-0.4,2.1-1.1,2.8
			c-0.8,0.7-1.7,1.1-2.8,1.1c-1.1,0-1.9-0.3-2.6-0.9c-0.7-0.6-1.1-1.5-1.3-2.7l1.9-0.4c0.1,0.7,0.2,1.2,0.4,1.5
			c0.4,0.5,0.9,0.8,1.7,0.8c0.6,0,1.1-0.2,1.4-0.6c0.4-0.4,0.6-0.9,0.6-1.5c0-0.2,0-0.5-0.1-0.7c-0.1-0.2-0.2-0.4-0.3-0.5
			s-0.3-0.3-0.5-0.5c-0.2-0.1-0.5-0.3-0.8-0.4l-1.2-0.5c-1.7-0.7-2.5-1.7-2.5-3.1c0-0.9,0.3-1.7,1.1-2.3c0.7-0.6,1.6-0.9,2.6-0.9
			C37.8,157.7,38.9,158.4,39.7,159.8z"/>
		<path class="st0" d="M49.1,159.8l-1.5,0.9c-0.3-0.5-0.5-0.8-0.8-0.9c-0.3-0.2-0.6-0.3-1-0.3c-0.5,0-0.9,0.1-1.3,0.4
			c-0.3,0.3-0.5,0.6-0.5,1.1c0,0.6,0.4,1.1,1.3,1.4l1.2,0.5c1,0.4,1.7,0.9,2.2,1.5s0.7,1.3,0.7,2.1c0,1.1-0.4,2.1-1.1,2.8
			c-0.8,0.7-1.7,1.1-2.8,1.1c-1.1,0-1.9-0.3-2.6-0.9c-0.7-0.6-1.1-1.5-1.3-2.7l1.9-0.4c0.1,0.7,0.2,1.2,0.4,1.5
			c0.4,0.5,0.9,0.8,1.7,0.8c0.6,0,1.1-0.2,1.4-0.6c0.4-0.4,0.6-0.9,0.6-1.5c0-0.2,0-0.5-0.1-0.7c-0.1-0.2-0.2-0.4-0.3-0.5
			s-0.3-0.3-0.5-0.5c-0.2-0.1-0.5-0.3-0.8-0.4l-1.2-0.5c-1.7-0.7-2.5-1.7-2.5-3.1c0-0.9,0.4-1.7,1.1-2.3c0.7-0.6,1.6-0.9,2.6-0.9
			C47.2,157.7,48.3,158.4,49.1,159.8z"/>
		<path class="st0" d="M58.4,159.7h-4.9v2.9h4.8v1.7h-4.8v4.1h4.9v1.7h-6.7V158h6.7L58.4,159.7L58.4,159.7z"/>
		<path class="st0" d="M70,165l3.8,5.2h-2.3l-3.5-5h-0.3v5h-1.8V158H68c1.6,0,2.8,0.3,3.5,0.9c0.8,0.7,1.2,1.6,1.2,2.7
			c0,0.9-0.2,1.6-0.7,2.2C71.4,164.4,70.8,164.8,70,165z M67.7,163.6h0.6c1.7,0,2.6-0.7,2.6-2c0-1.2-0.8-1.9-2.5-1.9h-0.7V163.6z"/>
		<path class="st0" d="M77.4,158v12.2h-1.8V158H77.4z"/>
		<path class="st0" d="M86.6,163.8h5v0.4c0,0.9-0.1,1.7-0.3,2.4c-0.2,0.7-0.6,1.3-1.1,1.8c-1.1,1.3-2.6,1.9-4.3,1.9
			c-1.7,0-3.2-0.6-4.4-1.9c-1.2-1.2-1.8-2.7-1.8-4.5c0-1.8,0.6-3.3,1.9-4.5c1.2-1.2,2.7-1.9,4.5-1.9c1,0,1.8,0.2,2.7,0.6
			c0.8,0.4,1.6,1,2.3,1.9l-1.3,1.3c-1-1.3-2.2-2-3.7-2c-1.3,0-2.4,0.4-3.2,1.3c-0.9,0.9-1.3,2-1.3,3.3c0,1.4,0.5,2.5,1.5,3.4
			c0.9,0.8,1.9,1.2,3,1.2c0.9,0,1.7-0.3,2.4-0.9c0.7-0.6,1.1-1.4,1.2-2.2h-3L86.6,163.8L86.6,163.8z"/>
		<path class="st0" d="M100.6,167.2h-5.2l-1.4,3h-2l6-13l5.8,13h-2L100.6,167.2z M99.8,165.5l-1.8-4.1l-1.9,4.1H99.8z"/>
	</g>
</g>
</svg>
